<svg width="800" height="600" viewBox="0 0 800 600" fill="none" xmlns="http://www.w3.org/2000/svg">
  <rect width="800" height="600" rx="36" fill="url(#bg)"/>
  <circle cx="615" cy="120" r="84" fill="#FDE7D7"/>
  <circle cx="165" cy="120" r="58" fill="#DBF6EC"/>
  <rect x="108" y="350" width="584" height="154" rx="28" fill="#FFFFFF" fill-opacity="0.8"/>
  <path d="M207 375C239.585 375 266 348.585 266 316C266 283.415 239.585 257 207 257C174.415 257 148 283.415 148 316C148 348.585 174.415 375 207 375Z" fill="#2563EB" fill-opacity="0.12"/>
  <path d="M207 335C220.255 335 231 324.255 231 311C231 297.745 220.255 287 207 287C193.745 287 183 297.745 183 311C183 324.255 193.745 335 207 335Z" fill="#2563EB"/>
  <path d="M160 390C160 365.699 179.699 346 204 346H210C234.301 346 254 365.699 254 390V410H160V390Z" fill="#2563EB"/>
  <path d="M397 355C443.944 355 482 316.944 482 270C482 223.056 443.944 185 397 185C350.056 185 312 223.056 312 270C312 316.944 350.056 355 397 355Z" fill="#10B981" fill-opacity="0.14"/>
  <path d="M397 311C416.33 311 432 295.33 432 276C432 256.67 416.33 241 397 241C377.67 241 362 256.67 362 276C362 295.33 377.67 311 397 311Z" fill="#10B981"/>
  <path d="M329 392C329 359.968 354.968 334 387 334H407C439.032 334 465 359.968 465 392V420H329V392Z" fill="#10B981"/>
  <path d="M595 375C627.585 375 654 348.585 654 316C654 283.415 627.585 257 595 257C562.415 257 536 283.415 536 316C536 348.585 562.415 375 595 375Z" fill="#F97316" fill-opacity="0.14"/>
  <path d="M595 335C608.255 335 619 324.255 619 311C619 297.745 608.255 287 595 287C581.745 287 571 297.745 571 311C571 324.255 581.745 335 595 335Z" fill="#F97316"/>
  <path d="M548 390C548 365.699 567.699 346 592 346H598C622.301 346 642 365.699 642 390V410H548V390Z" fill="#F97316"/>
  <path d="M267 429H532" stroke="#CFDDF8" stroke-width="10" stroke-linecap="round"/>
  <path d="M328 458H471" stroke="#CFDDF8" stroke-width="10" stroke-linecap="round"/>
  <defs>
    <linearGradient id="bg" x1="102" y1="59" x2="694" y2="546" gradientUnits="userSpaceOnUse">
      <stop stop-color="#EFF6FF"/>
      <stop offset="0.55" stop-color="#E0F2FE"/>
      <stop offset="1" stop-color="#F0FDF4"/>
    </linearGradient>
  </defs>
</svg>